<svg width="65" height="27" viewBox="0 0 65 27" fill="none" xmlns="http://www.w3.org/2000/svg">
<g id="Frame" clip-path="url(#clip0)">
<g id="accent">
<path id="Vector" d="M0 22.7399C0.043568 22.7399 0.0580907 22.7254 0.0580907 22.6963C0.087136 22.5654 0.116181 22.4346 0.145227 22.3037C0.275931 21.6349 0.421157 20.9806 0.551862 20.3118C0.551862 20.2827 0.566384 20.2682 0.566384 20.2391C0.697088 20.21 1.36513 20.21 1.56845 20.2391C1.52488 20.559 1.43774 20.8643 1.39418 21.1842C1.45227 21.2132 1.46679 21.1551 1.48131 21.1405C1.68463 20.8788 1.90247 20.6317 2.10579 20.37C2.14936 20.3263 2.1784 20.2827 2.22197 20.2391C2.43981 20.2246 3.18047 20.2246 3.32569 20.2391V20.2536V20.2682C2.96262 20.6607 2.61408 21.0533 2.25101 21.4604C2.26554 21.504 2.28006 21.5477 2.3091 21.5913C2.48338 21.9548 2.65765 22.3183 2.84644 22.6817C2.87549 22.7399 2.89001 22.7981 2.91906 22.8417C2.77383 22.8708 1.93152 22.8708 1.7282 22.8417C1.58297 22.4927 1.46679 22.1438 1.32156 21.7948C1.29252 21.7948 1.29252 21.7948 1.29252 21.7948C1.29252 21.7948 1.278 21.7948 1.278 21.8094C1.20538 22.1438 1.13277 22.4927 1.06016 22.8417C0.885883 22.8708 0.711611 22.8562 0.537339 22.8562C0.363067 22.8562 0.188795 22.8562 0.0290453 22.8562C0 22.8126 0 22.7835 0 22.7399Z" fill="#F7A707"/>
<path id="Vector_2" d="M29.0308 18.5089C29.0017 18.5235 28.9872 18.5235 28.9727 18.5235C27.0702 18.5235 25.1532 18.5235 23.2508 18.5235C23.2217 18.5235 23.2072 18.5089 23.1781 18.5089C23.1781 18.4653 23.1636 18.4362 23.1636 18.4072C23.1636 18.349 23.1636 18.2908 23.1636 18.2472C23.1636 14.4815 23.1636 10.7303 23.1636 6.96451C23.1636 6.89181 23.1636 6.81911 23.1636 6.73187C23.1201 6.73187 23.0765 6.71733 23.0474 6.71733C22.8586 6.71733 22.6844 6.71733 22.4956 6.71733C20.7819 6.71733 19.0537 6.71733 17.34 6.71733C17.2674 6.71733 17.1948 6.71733 17.1222 6.71733C17.1222 6.64464 17.1658 6.6301 17.1948 6.60102C17.6014 6.23753 17.9936 5.88858 18.4002 5.52509C19.1989 4.81265 20.0122 4.10021 20.811 3.38777C21.508 2.77711 22.1906 2.16645 22.8877 1.54124C22.9748 1.46855 23.062 1.42493 23.1781 1.42493C27.3171 1.42493 31.4415 1.42493 35.5805 1.42493C35.6386 1.42493 35.6822 1.42493 35.7693 1.43947C35.7112 1.49762 35.6822 1.5267 35.6531 1.55578C35.261 1.89019 34.8689 2.21006 34.4913 2.52993C33.2424 3.59132 31.9789 4.63817 30.7299 5.69956C30.3959 5.97582 30.0619 6.26661 29.7279 6.54286C29.5391 6.70279 29.6262 6.67372 29.3648 6.67372C29.2631 6.67372 29.176 6.67372 29.0598 6.67372C29.0453 6.71733 29.0453 6.74641 29.0453 6.79003C29.0453 6.84819 29.0453 6.90635 29.0453 6.94997C29.0453 10.7303 29.0453 14.5105 29.0453 18.2908C29.0308 18.3781 29.0308 18.4508 29.0308 18.5089Z" fill="#F7A707"/>
<path id="Vector_3" d="M58.0181 17.5929C57.9891 17.6075 57.96 17.622 57.931 17.6511C57.5243 17.9273 57.1177 18.2181 56.7256 18.4944C56.6966 18.5089 56.682 18.538 56.653 18.5525C56.6094 18.5816 56.5659 18.5962 56.5223 18.6252C55.8542 19.0614 55.1572 19.4685 54.4601 19.8466C54.4165 19.8611 54.3874 19.8902 54.3584 19.9193C54.3003 19.9483 54.2277 19.9629 54.1696 20.0065C53.4435 20.3991 52.6883 20.748 51.9331 21.097C51.9186 21.1115 51.8896 21.1261 51.875 21.1261C51.8315 21.1406 51.7879 21.1551 51.7443 21.1697C51.2215 21.3878 50.6987 21.5913 50.1759 21.8094C50.0742 21.853 49.9871 21.8821 49.8854 21.9257C49.8128 21.9403 49.7402 21.9693 49.6821 21.9839C48.8979 22.2601 48.0991 22.4928 47.2859 22.6818C47.0099 22.7399 46.7195 22.7981 46.4435 22.8563C46.3709 22.8708 46.2983 22.8853 46.2257 22.8999C45.9643 22.9435 45.7029 22.9726 45.4415 23.0162C44.9622 23.0889 44.4975 23.1034 44.0183 23.0744C43.7569 23.0598 43.4954 23.0017 43.2486 22.8999C42.8419 22.7254 42.566 22.4346 42.4643 21.9984C42.4208 21.824 42.3917 21.6495 42.4062 21.475C42.4208 21.1406 42.5805 20.8934 42.871 20.7335C43.1033 20.6172 43.3502 20.559 43.6116 20.5445C43.8295 20.5299 44.0328 20.5154 44.2506 20.5154C44.7299 20.5154 45.2091 20.5008 45.6738 20.4572C46.2548 20.4136 46.8357 20.3409 47.402 20.2537C48.5203 20.0792 49.624 19.8175 50.6987 19.4685C50.7568 19.454 50.8149 19.4249 50.873 19.3958C50.9311 19.3813 51.0037 19.3668 51.0618 19.3522C51.2941 19.2795 51.541 19.1923 51.7734 19.105C52.9207 18.6979 54.0244 18.2181 55.0991 17.6511C55.1572 17.622 55.2007 17.5784 55.2443 17.5493C55.2879 17.5348 55.3314 17.5057 55.375 17.4912C56.1302 17.084 56.8418 16.6188 57.5243 16.0954C57.626 16.0081 57.7277 15.9209 57.8293 15.8336C57.9165 15.7609 58.0036 15.7028 58.0907 15.6301C58.3231 15.4265 58.57 15.223 58.7733 14.9758C58.8023 14.9467 58.8314 14.9322 58.8169 14.8886C58.8459 14.8886 58.8604 14.874 58.8604 14.845C58.8895 14.8304 58.9185 14.8159 58.933 14.8013C59.1799 14.5542 59.3978 14.2779 59.6011 13.9871C59.6156 13.9726 59.6156 13.9435 59.6301 13.929C59.8189 13.6963 59.9787 13.4346 60.0949 13.1584C60.2401 12.8966 60.3417 12.6059 60.3853 12.3151C60.4579 12.0824 60.4434 11.8353 60.4289 11.6026C60.4289 11.3118 60.3417 11.0501 60.2256 10.7884C60.0223 10.3377 59.7028 9.95965 59.3397 9.63978C58.875 9.21813 58.3376 8.89826 57.7712 8.62201C57.1613 8.31668 56.5223 8.06951 55.8688 7.83687C55.1717 7.5897 54.4601 7.40068 53.7339 7.21167C53.5161 7.15351 53.3128 7.09535 53.0949 7.0372C53.0659 7.02266 53.0368 7.00812 53.0223 7.00812C53.0368 6.94996 53.0804 6.9645 53.0949 6.9645C53.4435 6.94996 53.792 6.9645 54.1406 7.00812C55.3169 7.16805 56.4497 7.47338 57.5534 7.92411C58.265 8.2149 58.933 8.57839 59.543 9.0582C59.9206 9.34899 60.2546 9.6834 60.5451 10.076C60.9081 10.5703 61.1405 11.1228 61.2422 11.7335C61.3148 12.1551 61.3148 12.5768 61.2422 12.9984C61.2422 13.042 61.2422 13.0857 61.2276 13.1293C61.1986 13.2601 61.155 13.391 61.126 13.5218C61.0969 13.6236 61.0679 13.7254 61.0534 13.8272C61.0243 13.8708 61.0098 13.929 60.9807 13.9726C60.8791 14.2197 60.7629 14.4669 60.6322 14.6996C60.5886 14.7723 60.5451 14.845 60.5015 14.9176C60.3127 15.1794 60.1239 15.4556 59.9206 15.7173C59.877 15.7755 59.8335 15.8482 59.7754 15.9063C59.7463 15.9354 59.7027 15.979 59.6737 16.0081C59.209 16.5315 58.7007 16.9968 58.1633 17.4185C58.1343 17.4912 58.0762 17.5493 58.0181 17.5929Z" fill="#F7A707"/>
<path id="Vector_4" d="M15.9604 20.2391C15.9169 20.4863 15.8588 20.7334 15.8152 20.9806C15.7716 20.9806 15.7281 20.9952 15.6845 20.9952C15.4957 20.9952 15.2924 20.9952 15.1036 20.9952C15.0455 20.9952 15.0019 20.9952 14.9293 20.9952C14.8422 21.3005 14.7986 21.6058 14.7405 21.9112C14.6824 22.2165 14.6098 22.5218 14.5517 22.8271C14.3775 22.8562 14.2177 22.8417 14.058 22.8417C13.8982 22.8417 13.7239 22.8562 13.5497 22.8271C13.5787 22.6672 13.6078 22.5218 13.6368 22.3619C13.6659 22.2019 13.6949 22.0565 13.7385 21.8966C13.7675 21.7512 13.7966 21.5913 13.8256 21.4459C13.8547 21.3005 13.8982 21.1551 13.8982 20.9952C13.753 20.9661 13.6078 20.9806 13.4771 20.9806C13.3318 20.9806 13.2011 20.9952 13.0414 20.9661C13.0849 20.7044 13.143 20.4572 13.1866 20.2246C13.2011 20.21 13.2011 20.21 13.2157 20.21H13.2302C13.2592 20.21 13.2883 20.21 13.3173 20.21C14.1741 20.21 15.0455 20.21 15.9023 20.21C15.9169 20.21 15.9169 20.2246 15.9604 20.2391Z" fill="#F7A707"/>
<path id="Vector_5" d="M27.23 22.0857C27.1719 22.3474 27.1283 22.5945 27.0848 22.8417C27.0412 22.8417 27.0122 22.8563 26.9831 22.8563C26.3005 22.8563 25.618 22.8563 24.9354 22.8563C24.9064 22.8563 24.8918 22.8563 24.8773 22.8563C24.8628 22.8417 24.8628 22.8417 24.8628 22.8417V22.8272C25.0371 21.9839 25.2113 21.126 25.3711 20.2827C25.3711 20.2682 25.3856 20.2682 25.4001 20.2391C25.5018 20.2246 25.6035 20.2391 25.7196 20.2391C25.8358 20.2391 25.9375 20.2391 26.0537 20.2391C26.1553 20.2391 26.2715 20.2246 26.3877 20.2537C26.2715 20.8643 26.1408 21.475 26.0246 22.1002C26.4022 22.0857 26.8088 22.0711 27.23 22.0857Z" fill="#F7A707"/>
</g>
<g id="main">
<path id="Vector_6" d="M49.1448 0C49.1448 0.0726979 49.1448 0.130856 49.1448 0.203554C49.1448 6.22294 49.1448 12.2569 49.1448 18.2763C49.1448 18.3489 49.1448 18.4362 49.1448 18.5234C49.1012 18.538 49.0722 18.538 49.0431 18.5525C48.9996 18.5525 48.9415 18.5525 48.8979 18.5525C47.0681 18.5525 45.2237 18.5525 43.3938 18.5525C43.3212 18.5525 43.2486 18.567 43.176 18.5234C43.176 18.5089 43.1615 18.4798 43.1615 18.4507C43.1615 18.3926 43.1615 18.3344 43.1615 18.2617C43.1615 14.9758 43.1615 11.6898 43.1615 8.40388C43.1615 8.33118 43.176 8.25848 43.1469 8.17124C43.0308 8.1567 42.9146 8.1567 42.7984 8.17124C42.7693 8.17124 42.7258 8.20032 42.7113 8.2294C42.5805 8.33118 42.4498 8.4475 42.3337 8.54927C41.6511 9.11632 40.9831 9.6979 40.3005 10.2649C39.7051 10.7738 39.0951 11.2827 38.4997 11.7916C37.9188 12.2859 37.3379 12.7658 36.757 13.2601C36.2632 13.6817 35.7549 14.1034 35.2611 14.525C34.6657 15.0339 34.0557 15.5428 33.4458 16.0517C32.6906 16.6914 31.9354 17.3312 31.1948 17.9564C31.0205 18.1018 30.8462 18.2617 30.6574 18.4071C30.6139 18.4362 30.5848 18.4798 30.5267 18.4943C30.5122 18.4798 30.5122 18.4653 30.5122 18.4653C30.5122 16.0226 30.5122 13.5945 30.5122 11.1519C30.5558 11.1082 30.6139 11.0646 30.6574 11.021C31.0931 10.643 31.5288 10.2795 31.9645 9.90145C32.5018 9.45073 33.0246 9 33.562 8.54927C34.1719 8.02585 34.7819 7.51696 35.3918 6.99354C35.9292 6.54281 36.452 6.09208 36.9893 5.64136C37.6864 5.04523 38.3835 4.44911 39.0806 3.85299C39.6034 3.40226 40.1262 2.95153 40.6636 2.51535C41.3606 1.91922 42.0577 1.33764 42.7403 0.741519C42.9872 0.523425 43.2486 0.319871 43.4955 0.101777C43.5245 0.0726979 43.539 0.0436187 43.5681 0.0290792C45.427 0 47.2859 0 49.1448 0Z" fill="#242424"/>
<path id="Vector_7" d="M61.2567 13.1438C61.3728 13.1438 61.489 13.1438 61.6052 13.1874C61.8957 13.3037 62.0699 13.4927 62.099 13.8126C62.128 14.0453 62.1861 14.2633 62.2878 14.4814C62.3894 14.7141 62.5637 14.8885 62.767 15.0339C62.8396 15.0921 62.9268 15.1357 62.9994 15.1939C63.0575 15.2375 63.101 15.2811 63.1591 15.3247C63.3334 15.4701 63.3479 15.7028 63.2753 15.8627C63.1736 16.0808 63.1301 16.2989 63.1591 16.5461C63.1882 16.8223 63.2463 17.0695 63.377 17.3167C63.4351 17.4475 63.5367 17.5493 63.6819 17.5929C63.7546 17.622 63.8126 17.6511 63.8853 17.6656C63.9869 17.7092 64.045 17.7674 64.0741 17.8692C64.1031 17.9419 64.1321 18.0146 64.1321 18.1018C64.1467 18.2908 64.1612 18.4653 64.1757 18.6543C64.1757 18.6979 64.1757 18.7415 64.1612 18.7852C64.1467 18.8579 64.1031 18.9015 64.0305 18.916C64.0014 18.916 63.9579 18.9306 63.9288 18.9306C63.7981 18.9596 63.7546 19.0178 63.74 19.1486C63.74 19.2213 63.74 19.2795 63.74 19.3522C63.7691 19.5848 63.8272 19.8175 63.8562 20.0501C63.8853 20.2246 63.9724 20.3409 64.1467 20.3991C64.1902 20.4136 64.2193 20.4427 64.2628 20.4427C64.3645 20.4572 64.4226 20.5299 64.4662 20.6026C64.4662 20.8789 64.4662 21.1406 64.4662 21.4168C64.4081 21.4895 64.4516 21.5913 64.3936 21.664C64.3209 21.664 64.2338 21.6785 64.1467 21.6785C63.9433 21.7076 63.9143 21.7222 63.8707 21.9402C63.8126 22.2747 63.7546 22.6091 63.6965 22.958C63.6674 23.1325 63.711 23.2924 63.8126 23.4233C63.8562 23.4814 63.8998 23.5396 63.9433 23.5978C64.0305 23.7141 64.0741 23.8449 64.0886 23.9903C64.0886 24.0921 64.0886 24.1939 64.0741 24.2811C64.0305 24.5574 63.9869 24.8336 63.9288 25.1099C63.9143 25.2117 63.8853 25.328 63.8707 25.4297C63.8417 25.5461 63.7691 25.6042 63.6674 25.6333C63.6238 25.6478 63.5658 25.6333 63.5222 25.6478C63.4351 25.6624 63.3334 25.6624 63.2463 25.6769C63.0865 25.706 62.9558 25.7932 62.8541 25.9241C62.7815 26.0259 62.738 26.1422 62.6944 26.2585C62.6654 26.3748 62.6363 26.4766 62.5927 26.5929C62.5346 26.7529 62.433 26.8837 62.2732 26.9564C62.2297 26.9855 62.1861 27.0146 62.1425 27.0436C61.7214 27.0436 61.3147 27.0436 60.8936 27.0436C60.8645 27.0291 60.8355 27.0146 60.8065 27.0146C60.6467 27.0146 60.487 27.0146 60.3417 27.0146C60.1675 27 60.0077 26.9855 59.8334 26.9709C59.7318 26.9564 59.6446 26.9273 59.5575 26.8692C59.4558 26.7965 59.4123 26.7092 59.4558 26.5784C59.4849 26.5057 59.5139 26.433 59.543 26.3603C59.6011 26.2585 59.6737 26.1567 59.7318 26.0404C59.7753 25.9532 59.8334 25.8514 59.8625 25.7642C59.877 25.7205 59.8915 25.6769 59.8915 25.6333C59.906 25.517 59.877 25.4734 59.7753 25.4443C59.6592 25.4007 59.5285 25.3716 59.3978 25.3571C58.9766 25.2844 58.5409 25.2262 58.1052 25.168C57.7567 25.1244 57.4081 25.0808 57.0451 25.0372C56.7691 25.0081 56.4932 24.979 56.2028 24.9499C55.9123 24.9209 55.6219 24.8918 55.3314 24.8627C55.1862 24.8482 55.0264 24.8336 54.8812 24.8191C54.431 24.7755 53.9663 24.7318 53.5161 24.7028C53.0949 24.6592 52.6592 24.6301 52.2381 24.5865C51.7879 24.5428 51.3231 24.5138 50.8729 24.4701C50.4663 24.4411 50.0597 24.3974 49.653 24.3829C49.4207 24.3684 49.1738 24.3684 48.9414 24.3684C48.68 24.3684 48.4331 24.4411 48.2008 24.5428C48.0701 24.601 47.9394 24.6737 47.8087 24.7464C47.5763 24.8772 47.3149 24.9354 47.0535 24.9354C46.763 24.9354 46.5016 24.8772 46.2257 24.8336C46.0514 24.8045 45.9352 24.7028 45.8626 24.5574C45.761 24.3538 45.6884 24.1212 45.6884 23.8886C45.6884 23.5541 45.8191 23.2779 46.0805 23.0743C46.124 23.0307 46.1821 23.0016 46.2257 22.958C46.2983 22.9435 46.3709 22.9289 46.4435 22.9144C46.7195 22.8562 47.0099 22.7981 47.2858 22.7399C48.0991 22.5509 48.8979 22.3183 49.6821 22.042C49.7547 22.0129 49.8273 21.9984 49.8854 21.9839C49.8999 22.042 49.8854 22.0856 49.8418 22.1147C49.7692 22.202 49.7111 22.2892 49.624 22.3619C49.5369 22.4491 49.4352 22.5073 49.3335 22.58C49.29 22.6091 49.2319 22.6381 49.2174 22.7254C49.2609 22.7399 49.29 22.7545 49.3335 22.7545C49.6676 22.7981 50.0161 22.8272 50.3501 22.8562C50.8003 22.8999 51.2505 22.9289 51.7007 22.958C52.1364 22.9871 52.5721 23.0162 53.0223 23.0307C53.487 23.0598 53.9663 23.0743 54.431 23.1034C55.0555 23.1325 55.68 23.1616 56.3044 23.1761C56.6384 23.1907 56.9725 23.2052 57.3065 23.2052C57.9164 23.2197 58.5119 23.2343 59.1218 23.2488C59.6301 23.2634 60.1239 23.2488 60.6177 23.2197C60.7193 23.2197 60.8065 23.1907 60.9081 23.1907C61.0098 23.1761 61.0969 23.1325 61.155 23.0453C61.3438 22.7545 61.5035 22.4637 61.6052 22.1293C61.6197 22.0566 61.6342 21.9839 61.6342 21.9112C61.6342 21.7658 61.6052 21.7222 61.46 21.6931C61.4455 21.6931 61.4309 21.6931 61.4019 21.6785C61.1695 21.6495 60.9226 21.6204 60.6903 21.6058C60.3417 21.5768 59.9932 21.5622 59.6446 21.5331C59.2235 21.5041 58.7878 21.4895 58.3666 21.4604C57.931 21.4314 57.4953 21.4168 57.0451 21.3877C56.5513 21.3587 56.0575 21.3296 55.5638 21.315C55.1426 21.3005 54.7215 21.286 54.3003 21.2569C54.2858 21.2569 54.2567 21.2569 54.2422 21.2569C53.821 21.2423 53.3999 21.2133 52.9787 21.1987C52.6157 21.1842 52.2526 21.1697 51.9041 21.1551C51.8895 21.1551 51.875 21.1551 51.875 21.1551C51.8895 21.1406 51.9186 21.126 51.9331 21.126C52.6883 20.7916 53.4435 20.4281 54.1696 20.0356C54.2277 20.0065 54.2858 19.9774 54.3584 19.9483C54.7069 19.9774 55.07 20.0065 55.4185 20.0356C55.8252 20.0646 56.2173 20.1083 56.6239 20.1373C56.9725 20.1664 57.3355 20.181 57.6841 20.21C58.2214 20.2391 58.7588 20.2682 59.2961 20.2827C59.6737 20.2973 60.0513 20.2973 60.4289 20.3118C60.8791 20.3264 61.3147 20.2973 61.7649 20.2827C61.8085 20.2827 61.8666 20.2682 61.9102 20.2682C62.0844 20.2537 62.2006 20.1519 62.2878 20.0065C62.3313 19.9483 62.3604 19.8756 62.3749 19.8029C62.433 19.6139 62.4475 19.4249 62.3894 19.2213C62.3459 19.0614 62.2442 18.9451 62.0699 18.9015C61.9973 18.8869 61.9247 18.8579 61.8521 18.8433C61.4745 18.7706 61.0969 18.727 60.7193 18.7125C60.2691 18.6834 59.8334 18.6543 59.3832 18.6398C58.9475 18.6252 58.4973 18.6107 58.0617 18.6107C57.655 18.6107 57.2484 18.6107 56.8272 18.5961C56.7546 18.5961 56.6965 18.5961 56.6239 18.5961C56.653 18.5816 56.6675 18.5525 56.6965 18.538C57.1032 18.2617 57.5098 17.9709 57.9019 17.6947C57.931 17.6801 57.96 17.6656 57.9891 17.6365C58.1052 17.6365 58.2214 17.6365 58.3376 17.622C58.6571 17.6075 58.9766 17.5784 59.2816 17.5638C59.8625 17.5493 60.4579 17.5348 61.0388 17.5057C61.3438 17.4911 61.6633 17.4911 61.9683 17.4766C61.9973 17.4766 62.0264 17.4766 62.0554 17.4766C62.1425 17.4621 62.2152 17.4184 62.2587 17.3457C62.2878 17.3021 62.3168 17.244 62.3313 17.2003C62.4039 16.9823 62.433 16.7642 62.4185 16.5315C62.4039 16.3134 62.2878 16.139 62.0844 16.0372C62.0118 15.9936 61.9247 15.9645 61.8376 15.9499C61.7214 15.9209 61.6052 15.9063 61.489 15.9063C61.1405 15.8918 60.7919 15.9354 60.4434 15.9645C60.211 15.9936 59.9787 16.0081 59.7463 15.9645C59.7899 15.9063 59.848 15.8336 59.8915 15.7755C60.0803 15.5138 60.2691 15.2375 60.4724 14.9758C60.7048 14.9758 60.9372 14.9903 61.1695 14.9903C61.2421 14.9903 61.3293 14.9758 61.4019 14.9612C61.46 14.9467 61.5035 14.9176 61.5471 14.8885C61.6342 14.8304 61.6778 14.7286 61.6342 14.6268C61.6197 14.5687 61.5907 14.496 61.5471 14.4378C61.3874 14.2197 61.2131 14.0307 60.9952 13.8562C61.0243 13.7545 61.0533 13.6527 61.0679 13.5509C61.184 13.4055 61.2131 13.2747 61.2567 13.1438Z" fill="#242424"/>
<path id="Vector_8" d="M60.3417 26.9709C60.5014 26.9709 60.6612 26.9709 60.8064 26.9709C60.8354 26.9709 60.8645 26.9855 60.8935 27C60.7047 27 60.5305 27 60.3417 27C60.3417 27 60.3417 26.9855 60.3417 26.9709Z" fill="#242424"/>
<path id="Vector_9" d="M7.45015 13.2601C7.39206 13.3037 7.33397 13.3473 7.27588 13.4055C6.89829 13.7108 6.53522 14.0162 6.15764 14.336C6.12859 14.3651 6.09954 14.3942 6.05598 14.4233C5.99789 14.4669 5.98336 14.5105 5.98336 14.5832C5.98336 14.6268 5.98336 14.6704 5.98336 14.7141C5.98336 15.9208 5.98336 17.1276 5.98336 18.3344C5.98336 18.4071 5.98336 18.4653 5.98336 18.538C5.9398 18.5525 5.91075 18.5525 5.86718 18.5525C5.82361 18.5525 5.79457 18.5525 5.751 18.5525C3.95019 18.5525 2.14938 18.5525 0.334044 18.5525C0.26143 18.5525 0.188817 18.567 0.101681 18.538C0.101681 18.5089 0.0871582 18.4653 0.0871582 18.4362C0.0871582 18.3926 0.0871582 18.349 0.0871582 18.3053C0.0871582 14.0016 0.0871582 9.69791 0.0871582 5.39419C0.0871582 5.32149 0.0871582 5.24879 0.0871582 5.16156C2.06224 3.51858 4.00828 1.89015 5.96884 0.261719C5.99789 0.363496 5.98336 0.450733 5.98336 0.537971C5.98336 0.625208 5.98336 0.726985 5.98336 0.814223C5.98336 0.90146 5.98336 0.988698 5.98336 1.07594C5.98336 1.16317 5.98336 1.26495 5.98336 1.35219C5.98336 1.43942 5.98336 1.52666 5.98336 1.6139C5.98336 1.70114 5.98336 1.78837 5.98336 1.87561C5.98336 1.96285 5.98336 2.06463 5.98336 2.15186C5.98336 2.2391 5.98336 2.32634 5.98336 2.41358C5.98336 2.50081 5.98336 2.60259 5.98336 2.68983C5.98336 2.77707 5.98336 2.8643 5.98336 2.95154C5.98336 3.03878 5.98336 3.12602 5.98336 3.21325C5.98336 3.30049 5.98336 3.40227 5.98336 3.48951C5.98336 3.57674 5.98336 3.66398 5.98336 3.75122C5.98336 3.83846 5.98336 3.94023 5.98336 4.02747C5.98336 4.11471 5.98336 4.20195 5.98336 4.28918C5.98336 4.37642 5.98336 4.46366 5.98336 4.55089C5.98336 4.63813 5.98336 4.73991 5.98336 4.82715C5.98336 4.91438 5.98336 5.00162 5.98336 5.08886C5.98336 5.1761 5.98336 5.27787 5.98336 5.36511C5.98336 5.45235 5.98336 5.53959 5.98336 5.62682C5.98336 5.71406 5.98336 5.8013 5.98336 5.88854C5.98336 5.97577 5.98336 6.07755 5.98336 6.16479C5.98336 6.25203 5.98336 6.33926 5.98336 6.4265C5.98336 6.51374 5.98336 6.61552 5.98336 6.70275C5.98336 6.78999 5.98336 6.87723 5.98336 6.94993C6.02693 6.979 6.05598 6.94993 6.0705 6.93539C6.60784 6.4992 7.13065 6.04847 7.66799 5.59774C8.30699 5.07432 8.93147 4.53636 9.57046 4.01293C10.1949 3.48951 10.8194 2.96608 11.4439 2.44266C11.7779 2.1664 12.0974 1.89015 12.4314 1.6139C12.5186 1.5412 12.6202 1.51212 12.7364 1.51212C15.4376 1.51212 18.1388 1.51212 20.8401 1.51212C20.8981 1.51212 20.9562 1.49758 21.0289 1.52666C20.9127 1.67206 20.782 1.7593 20.6513 1.86107C20.5351 1.97739 20.4044 2.07917 20.2737 2.18094C20.143 2.28272 20.0268 2.39904 19.8961 2.50081C19.7654 2.60259 19.6492 2.71891 19.5185 2.82068C19.3878 2.92246 19.2716 3.03878 19.1409 3.14056C19.0102 3.24233 18.894 3.35865 18.7633 3.46043C18.6326 3.5622 18.5164 3.67852 18.3857 3.7803C18.255 3.88207 18.1388 3.99839 18.0081 4.10017C17.8774 4.20195 17.7613 4.31826 17.6305 4.42004C17.4998 4.52182 17.3837 4.63813 17.253 4.73991C17.1223 4.84169 17.0061 4.958 16.8754 5.05978C16.7447 5.16156 16.6285 5.27787 16.4978 5.37965C16.3816 5.48143 16.2509 5.5832 16.1347 5.68498C16.004 5.78676 15.8878 5.90308 15.7571 6.00485C15.6264 6.10663 15.5102 6.22295 15.3795 6.32472C15.2488 6.4265 15.1326 6.54282 15.0019 6.64459C14.8712 6.74637 14.7551 6.86269 14.6244 6.96447C14.4936 7.06624 14.3775 7.18256 14.2468 7.28434C14.1161 7.38611 13.9999 7.50243 13.8692 7.60421C13.7385 7.70598 13.6223 7.8223 13.4916 7.92408C13.3609 8.02585 13.2447 8.14217 13.114 8.24395C12.9833 8.34573 12.8671 8.46204 12.7364 8.56382C12.6057 8.6656 12.4895 8.78191 12.3588 8.88369C12.2281 8.98547 12.0974 9.08724 11.9812 9.20356C11.865 9.31988 11.7198 9.40711 11.6182 9.53797C11.6472 9.56705 11.6763 9.61067 11.7053 9.63975C12.5621 10.3958 13.4335 11.1664 14.2903 11.9225C14.4936 12.0969 14.697 12.286 14.9003 12.4604C14.9584 12.5186 14.9874 12.5767 14.9874 12.6494C14.9874 12.6931 14.9874 12.7221 14.9874 12.7658C14.9874 14.9758 14.9874 17.1712 14.9874 19.3813C14.9874 19.454 14.9874 19.5267 14.9729 19.6139C14.8712 19.5703 14.8131 19.4976 14.7405 19.4394C14.6679 19.3813 14.5953 19.3086 14.5082 19.2504C14.4356 19.1922 14.3629 19.1341 14.3049 19.0759C14.2322 19.0178 14.1596 18.9596 14.087 18.9015C14.0144 18.8433 13.9418 18.7706 13.8692 18.7124C13.7966 18.6543 13.7239 18.5961 13.6513 18.538C13.5787 18.4798 13.5061 18.4217 13.4335 18.3635C13.3609 18.3053 13.2883 18.2326 13.2157 18.1745C13.143 18.1163 13.0704 18.0582 12.9978 18C12.9252 17.9418 12.8526 17.8837 12.78 17.8255C12.7074 17.7674 12.6347 17.7092 12.5621 17.6511C12.4895 17.5929 12.4169 17.5202 12.3443 17.462C12.2717 17.4039 12.1991 17.3457 12.1265 17.2876C12.0538 17.2294 11.9812 17.1712 11.9231 17.1131C11.8505 17.0549 11.7779 16.9822 11.7053 16.9241C11.6327 16.8659 11.5601 16.8078 11.4875 16.7496C11.4148 16.6914 11.3422 16.6333 11.2696 16.5751C11.197 16.517 11.1244 16.4443 11.0518 16.3861C10.9792 16.328 10.9065 16.2698 10.8485 16.2116C10.7758 16.1535 10.7032 16.0953 10.6306 16.0372C10.558 15.979 10.4854 15.9063 10.4128 15.8481C10.3402 15.79 10.2676 15.7318 10.2095 15.6737C10.1368 15.6155 10.0642 15.5574 9.99162 15.4992C9.91901 15.441 9.84639 15.3683 9.77378 15.3102C9.70117 15.252 9.62855 15.1939 9.55594 15.1357C9.48333 15.0776 9.41071 15.0194 9.3381 14.9612C9.26549 14.9031 9.19287 14.8449 9.13478 14.7868C9.06217 14.7286 8.98956 14.6559 8.91694 14.5977C8.84433 14.5396 8.77172 14.4814 8.71362 14.4233C8.64101 14.3651 8.5684 14.307 8.49579 14.2488C8.42317 14.1906 8.35056 14.1179 8.27795 14.0598C8.20533 14.0016 8.13272 13.9435 8.06011 13.8853C7.98749 13.8271 7.91488 13.769 7.84227 13.7108C7.76965 13.6527 7.69704 13.58 7.62442 13.5218C7.59538 13.3764 7.52277 13.3183 7.45015 13.2601Z" fill="#242424"/>
<path id="Vector_10" d="M58.7878 15.0048C58.5845 15.252 58.3376 15.441 58.1052 15.6591C58.0181 15.7318 57.9309 15.79 57.8438 15.8627C57.7857 15.8627 57.7276 15.8627 57.6841 15.8481C57.3355 15.8336 56.9724 15.8045 56.6239 15.79C56.2608 15.7609 55.8978 15.79 55.5492 15.8772C55.0119 16.0226 54.6343 16.3716 54.4019 16.8804C54.3874 16.9095 54.3729 16.9386 54.3729 16.9677C54.3148 17.1858 54.3874 17.3602 54.5907 17.4475C54.7069 17.4911 54.8231 17.5202 54.9393 17.5347C55.0409 17.5493 55.1426 17.5638 55.2442 17.5638C55.2007 17.5929 55.1426 17.6365 55.099 17.6656C54.0243 18.2326 52.9206 18.727 51.7733 19.1195C51.541 19.2068 51.2941 19.2795 51.0617 19.3667C51.0036 19.3812 50.931 19.3958 50.8729 19.4103C50.9601 19.3085 51.0472 19.2068 51.1343 19.105C51.3667 18.8433 51.5991 18.5961 51.8314 18.3489C52.1509 18 52.4559 17.651 52.7754 17.3021C52.9351 17.1422 53.0949 16.9677 53.2401 16.8077C53.7775 16.2407 54.2858 15.6591 54.7505 15.0339C54.9102 14.8304 55.0409 14.6123 55.1716 14.3796C55.2442 14.2342 55.3459 14.1034 55.433 13.958C55.4621 13.9144 55.4911 13.8707 55.5202 13.8417C55.7816 13.4927 55.8978 13.1001 55.9123 12.664C55.9123 12.5913 55.9123 12.5331 55.9268 12.4604C55.9704 11.8788 55.8687 11.3263 55.5492 10.832C55.4766 10.7157 55.375 10.6139 55.2878 10.4976C55.2007 10.3958 55.099 10.294 55.0119 10.1777C54.9683 10.1341 54.9248 10.0759 54.8957 10.0178C54.8231 9.90144 54.8376 9.78512 54.9248 9.69789C54.9974 9.62519 55.07 9.53795 55.1426 9.47979C55.3169 9.3344 55.5057 9.20354 55.6799 9.07268C55.709 9.0436 55.738 9.02907 55.7671 9.01453C55.8397 8.97091 55.9123 8.97091 55.9994 9.01453C56.0866 9.05814 56.1592 9.10176 56.2027 9.189C56.1592 9.31986 56.072 9.39255 55.9704 9.46525C55.9123 9.50887 55.8397 9.53795 55.7816 9.58157C55.6654 9.66881 55.5492 9.7415 55.433 9.82874C55.3604 9.8869 55.3459 9.90144 55.3023 10.0032C55.3314 10.0468 55.375 10.0468 55.4185 10.0468C55.5202 10.0323 55.6218 10.0032 55.7235 9.97414C55.7816 9.9596 55.8397 9.94506 55.8978 9.94506C55.9559 9.93052 56.014 9.94506 56.072 9.98868C56.1156 10.0323 56.1737 10.0323 56.2318 10.0178C56.4642 9.97414 56.682 9.91598 56.8708 9.77058C56.9144 9.7415 56.9289 9.69789 56.9579 9.65427C56.9724 9.62519 56.9434 9.58157 56.9289 9.58157C56.8853 9.58157 56.8272 9.58157 56.7837 9.58157C56.711 9.59611 56.6529 9.62519 56.5803 9.65427C56.4496 9.71243 56.3044 9.75604 56.1737 9.8142C56.1447 9.82874 56.1156 9.8142 56.072 9.8142C56.0866 9.77058 56.1011 9.75604 56.1156 9.7415C56.3044 9.56703 56.5222 9.45071 56.7546 9.36348C56.8417 9.3344 56.9289 9.34894 57.0015 9.39255C57.2193 9.52341 57.4372 9.63973 57.655 9.77058C57.96 9.97414 58.265 10.1777 58.5699 10.3667C58.7152 10.4539 58.8604 10.5412 59.0056 10.643C59.0782 10.6866 59.1508 10.7447 59.2089 10.8174C59.2525 10.8756 59.3106 10.9337 59.3687 10.9919C59.4703 11.0937 59.5865 11.1955 59.6737 11.2972C59.8334 11.4863 60.0367 11.5735 60.2691 11.6171C60.3127 11.6317 60.3708 11.6316 60.4143 11.6462C60.4288 11.8934 60.4434 12.126 60.3708 12.3586C60.2255 12.3586 60.0948 12.3441 59.9496 12.3441C59.3687 12.3441 58.7878 12.3441 58.2069 12.3732C57.7131 12.4022 57.2339 12.4022 56.7401 12.4168C56.6965 12.4168 56.6529 12.4168 56.6094 12.4313C56.5222 12.4459 56.4351 12.4749 56.348 12.504C56.2754 12.5331 56.2173 12.6058 56.2027 12.6785C56.1447 12.853 56.1737 13.0129 56.2318 13.1728C56.5077 13.2455 56.7982 13.2746 57.0741 13.2892C57.5388 13.3037 57.989 13.2746 58.4538 13.2455C58.6426 13.231 58.8168 13.2165 59.0056 13.2019C59.3687 13.1728 59.7318 13.1583 60.0803 13.1874C59.9641 13.4636 59.8044 13.7253 59.6156 13.958C59.3832 13.958 59.1654 13.958 58.933 13.958C58.3811 13.958 57.8293 13.9434 57.2774 13.9871C57.0596 14.0016 56.8563 14.0016 56.6384 14.0307C56.4642 14.0452 56.3044 14.0888 56.1301 14.1325C56.0285 14.147 55.9559 14.2052 55.8978 14.2779C55.8397 14.3651 55.7671 14.4378 55.709 14.525C55.6945 14.5541 55.6799 14.5832 55.6654 14.6268C55.6364 14.714 55.6509 14.7577 55.738 14.7867C55.8252 14.8158 55.9123 14.8449 55.9994 14.8594C56.1592 14.8885 56.3189 14.9031 56.4787 14.9031C57.0015 14.9031 57.5243 14.9031 58.0326 14.8885C58.2795 14.8885 58.5264 14.874 58.7587 14.8013C58.7733 14.8013 58.8023 14.8013 58.8313 14.8013C58.8313 14.8304 58.8313 14.8449 58.8313 14.8594C58.8168 14.874 58.8023 14.8885 58.7878 14.9031C58.8168 14.9467 58.8023 14.9758 58.7878 15.0048ZM56.2754 11.777C56.3334 11.8643 56.4206 11.8643 56.4932 11.8643C56.7691 11.8643 57.0305 11.8643 57.3065 11.8497C57.6841 11.8207 58.0762 11.7916 58.4538 11.748C58.7006 11.7189 58.9475 11.7043 59.1944 11.6462C59.2525 11.6316 59.2961 11.6171 59.3542 11.6026C59.4268 11.5735 59.4413 11.5153 59.3977 11.4572C59.3542 11.399 59.2961 11.3699 59.2235 11.3554C59.1218 11.3409 59.0201 11.3263 58.9185 11.3409C58.7878 11.3554 58.6571 11.3699 58.5409 11.3845C58.1197 11.4281 57.6986 11.4572 57.2774 11.5008C57.0451 11.5299 56.8127 11.5735 56.5658 11.6026C56.4932 11.6171 56.4206 11.6462 56.3625 11.6753C56.3335 11.7043 56.3044 11.748 56.2754 11.777ZM56.2608 11.1664C56.4061 11.1518 56.5513 11.1518 56.6965 11.1228C57.2193 11.0355 57.7421 10.9338 58.265 10.832C58.3231 10.8174 58.3666 10.8029 58.4247 10.7884C58.4828 10.7593 58.5118 10.6866 58.4973 10.6139C58.4828 10.5412 58.4392 10.4976 58.3666 10.4685C58.3231 10.4539 58.2795 10.4394 58.2214 10.4394C58.0471 10.4394 57.8729 10.4249 57.7131 10.4539C57.3355 10.4976 56.9724 10.5993 56.6094 10.7447C56.4787 10.7884 56.3625 10.8465 56.2463 10.9192C56.1882 10.9483 56.1301 11.0064 56.072 11.0501C56.0575 11.0646 56.043 11.1082 56.0575 11.1373C56.072 11.1664 56.1011 11.1809 56.1301 11.1809C56.1737 11.1664 56.2173 11.1664 56.2608 11.1664ZM56.1156 10.4976C56.1301 10.4976 56.1737 10.4976 56.2027 10.483C56.5513 10.4103 56.8853 10.294 57.1903 10.1195C57.2339 10.0905 57.2774 10.0614 57.321 10.0178C57.3355 10.0032 57.35 9.97414 57.3646 9.9596C57.3791 9.93052 57.3646 9.8869 57.3355 9.8869C57.2774 9.8869 57.2193 9.87236 57.1758 9.8869C56.9289 9.94506 56.6965 10.0178 56.4642 10.0905C56.3189 10.1341 56.1882 10.2068 56.043 10.2795C55.9849 10.3085 55.9268 10.3376 55.9268 10.4103C55.9413 10.4685 56.0139 10.4976 56.1156 10.4976Z" fill="#242424"/>
<path id="Vector_11" d="M30.0039 22.9725C30.1055 23.0162 30.1927 23.0452 30.2798 23.0743C30.4541 23.147 30.6429 23.1616 30.8317 23.147C31.1221 23.1179 31.3109 22.958 31.398 22.6817C31.398 22.6672 31.398 22.6527 31.398 22.609C31.3545 22.6381 31.3109 22.6672 31.2673 22.6963C31.0785 22.8271 30.8897 22.8708 30.6574 22.8562C30.2943 22.8271 30.0474 22.58 30.0329 22.2165C30.0184 21.7948 30.1491 21.4168 30.4541 21.126C30.6574 20.9225 30.9043 20.8352 31.1802 20.8498C31.398 20.8643 31.5723 20.9515 31.6595 21.1551C31.6595 21.1696 31.674 21.1842 31.703 21.2132C31.7321 21.0969 31.7611 21.0097 31.7902 20.9079C31.9789 20.8788 32.5163 20.8934 32.6615 20.9079C32.6615 20.9515 32.6615 20.9952 32.647 21.0242C32.5453 21.5477 32.4292 22.0711 32.3275 22.58C32.2985 22.7399 32.2404 22.8853 32.1677 23.0307C32.0225 23.336 31.7756 23.525 31.4561 23.6268C31.2964 23.685 31.1366 23.6995 30.9769 23.7141C30.6283 23.7431 30.2943 23.6995 29.9603 23.6123C29.9167 23.5977 29.8877 23.5832 29.8296 23.5687C29.9167 23.3651 29.9458 23.1761 30.0039 22.9725ZM31.6014 21.6931C31.6014 21.6785 31.6014 21.6494 31.6014 21.6349C31.5868 21.475 31.4852 21.3877 31.3254 21.4604C31.2819 21.475 31.2383 21.5186 31.2092 21.5477C31.1076 21.7076 31.064 21.8821 31.0785 22.0711C31.0785 22.1874 31.1802 22.2601 31.2964 22.231C31.398 22.2165 31.4707 22.1583 31.4997 22.0711C31.5723 21.9693 31.6014 21.8385 31.6014 21.6931Z" fill="#242424"/>
<path id="Vector_12" d="M9.23643 21.1842C9.26548 21.0679 9.28 20.9806 9.30905 20.8934C9.45427 20.8498 9.5995 20.8789 9.74473 20.8789C9.88995 20.8789 10.0352 20.8789 10.1804 20.8789C10.1949 20.9661 10.1659 21.0533 10.1514 21.126C10.0642 21.5913 9.96257 22.0566 9.86091 22.5218C9.84638 22.6236 9.81734 22.7254 9.78829 22.8272C9.62854 23.3215 9.28 23.5978 8.77171 23.685C8.35055 23.7577 7.92939 23.7286 7.52276 23.6123C7.47919 23.5978 7.43562 23.5832 7.39205 23.5687C7.36301 23.4669 7.4211 23.3651 7.43562 23.2634C7.45014 23.1616 7.47919 23.0598 7.50824 22.958C7.58085 22.9871 7.63894 23.0162 7.68251 23.0307C7.90035 23.118 8.11819 23.1616 8.35055 23.1325C8.59743 23.1034 8.77171 22.9871 8.87337 22.7545C8.88789 22.7254 8.88789 22.7254 8.87337 22.6382C8.80075 22.6382 8.75718 22.6818 8.71362 22.7109C8.48125 22.8417 8.23437 22.8708 7.98748 22.7836C7.7406 22.6963 7.59537 22.5218 7.56633 22.2601C7.52276 21.8676 7.62442 21.5041 7.8713 21.1987C8.08914 20.937 8.35055 20.7916 8.69909 20.8062C8.91693 20.8207 9.09121 20.8934 9.19286 21.1115C9.19286 21.1551 9.20739 21.1551 9.23643 21.1842ZM8.58291 22.013C8.58291 22.042 8.58291 22.0566 8.58291 22.0857C8.59743 22.1874 8.65553 22.2601 8.75718 22.2456C8.84432 22.2456 8.91693 22.2165 8.9605 22.1438C9.06216 21.9693 9.12025 21.7803 9.09121 21.5913C9.07668 21.4895 8.98955 21.4314 8.88789 21.4459C8.80075 21.4605 8.72814 21.5041 8.68457 21.5768C8.62648 21.7076 8.58291 21.8676 8.58291 22.013ZM8.91693 22.6236C8.90241 22.6236 8.90241 22.6236 8.90241 22.6236C8.88789 22.6236 8.88789 22.6236 8.91693 22.6236C8.90241 22.6236 8.90241 22.6236 8.91693 22.6236Z" fill="#242424"/>
<path id="Vector_13" d="M22.2342 22.8562C21.9147 22.8562 21.6242 22.8562 21.3338 22.8562C21.2902 22.8126 21.3193 22.7835 21.3193 22.7544C21.3773 22.4782 21.4354 22.1874 21.4935 21.9111C21.508 21.8239 21.5371 21.7367 21.5371 21.6349C21.5516 21.5767 21.5371 21.504 21.479 21.4749C21.4209 21.4459 21.3193 21.4604 21.2757 21.5331C21.2466 21.5767 21.2176 21.6349 21.2031 21.693C21.1595 21.853 21.1305 22.0129 21.1014 22.1728C21.0578 22.3764 21.0288 22.5654 20.9852 22.769C20.9852 22.798 20.9562 22.8271 20.9417 22.8707C20.6367 22.8707 20.3462 22.8707 20.0558 22.8707C20.0122 22.8126 20.0267 22.769 20.0413 22.7253C20.1574 22.1583 20.2736 21.5913 20.3898 21.0242C20.3898 20.9951 20.4043 20.9515 20.4188 20.9224C20.5641 20.8934 21.0578 20.8934 21.2902 20.9079C21.2902 20.9806 21.2757 21.0533 21.2757 21.126C21.3338 21.1405 21.3628 21.0969 21.3919 21.0678C21.5807 20.8934 21.7985 20.8207 22.0454 20.8497C22.118 20.8497 22.2051 20.8788 22.2777 20.9079C22.452 20.9806 22.5392 21.1115 22.5392 21.315C22.5392 21.3732 22.5392 21.4313 22.5246 21.504C22.4375 21.9402 22.3504 22.3619 22.2632 22.798C22.2632 22.798 22.2487 22.8126 22.2342 22.8562Z" fill="#242424"/>
<path id="Vector_14" d="M11.2986 22.9143C11.1533 22.8998 11.0081 22.8853 10.8629 22.8562C10.8048 22.8416 10.7322 22.8126 10.6741 22.7835C10.3982 22.6526 10.2529 22.4345 10.2529 22.1292C10.2384 21.6639 10.4417 21.3005 10.8338 21.0533C11.0226 20.937 11.2259 20.8643 11.4293 20.8497C11.6471 20.8206 11.8649 20.8207 12.0828 20.8788C12.2716 20.9224 12.4458 21.0097 12.5766 21.1696C12.6637 21.2714 12.7218 21.3877 12.7363 21.5185C12.7944 21.9547 12.6492 22.3182 12.3151 22.5945C12.0828 22.7835 11.8069 22.8853 11.5019 22.8998C11.4293 22.8998 11.3712 22.8998 11.2986 22.8998C11.2986 22.8998 11.2986 22.9143 11.2986 22.9143ZM11.2695 22.0856C11.2695 22.1292 11.2695 22.1728 11.2695 22.2164C11.284 22.3037 11.3712 22.3618 11.4583 22.3328C11.5019 22.3182 11.5454 22.2891 11.5745 22.2455C11.6035 22.2164 11.6181 22.1728 11.6326 22.1292C11.6907 21.9693 11.7197 21.8093 11.7488 21.6494C11.7488 21.6058 11.7488 21.5622 11.7488 21.5185C11.7342 21.4168 11.6471 21.3732 11.56 21.4022C11.4728 21.4313 11.4293 21.4895 11.4002 21.5622C11.3131 21.7366 11.2695 21.9111 11.2695 22.0856Z" fill="#242424"/>
<path id="Vector_15" d="M28.4935 22.8998C28.3192 22.8998 28.145 22.8853 27.9707 22.8271C27.6367 22.6963 27.4624 22.4491 27.4624 22.1002C27.4624 21.5767 27.7238 21.2133 28.1885 20.9806C28.5516 20.8061 28.9437 20.7916 29.3358 20.8788C29.6698 20.9661 29.8877 21.1696 29.9458 21.504C29.9893 21.7948 29.9313 22.0711 29.757 22.3183C29.5682 22.58 29.3068 22.7544 28.9873 22.8417C28.813 22.8853 28.6678 22.8998 28.4935 22.8998ZM28.9437 21.6204C28.9437 21.5913 28.9437 21.5622 28.9292 21.5331C28.9001 21.4313 28.8275 21.3877 28.7259 21.4168C28.6533 21.4459 28.6097 21.504 28.5806 21.5622C28.4935 21.7367 28.4645 21.9402 28.4499 22.1292C28.4499 22.1583 28.4499 22.1729 28.4499 22.2019C28.479 22.3183 28.5806 22.3619 28.6823 22.3037C28.7549 22.2601 28.784 22.2019 28.813 22.1292C28.9001 21.9693 28.9292 21.7948 28.9437 21.6204Z" fill="#242424"/>
<path id="Vector_16" d="M4.4004 22.6672C4.38587 22.6817 4.37135 22.6817 4.35683 22.6963C4.09542 22.9144 3.79044 22.9289 3.48547 22.8853C3.23858 22.8562 3.1224 22.6817 3.10788 22.4346C3.09336 22.2019 3.18049 22.0129 3.36929 21.8821C3.55808 21.7367 3.7614 21.664 3.99376 21.6494C4.18256 21.6349 4.35683 21.6349 4.54562 21.6203C4.57467 21.6203 4.60371 21.6203 4.63276 21.6058C4.67633 21.5622 4.66181 21.504 4.64728 21.4604C4.63276 21.4022 4.57467 21.3732 4.5311 21.3586C4.4004 21.315 4.28422 21.3005 4.15351 21.3295C3.97924 21.3586 3.81949 21.4022 3.64522 21.4313C3.61617 21.4313 3.58713 21.4459 3.54356 21.4604C3.55808 21.2859 3.58713 21.126 3.64522 20.9661C3.73235 20.9079 3.83401 20.9079 3.93567 20.8934C4.22612 20.8352 4.50206 20.8207 4.79251 20.8352C4.93774 20.8497 5.08296 20.8788 5.21367 20.937C5.46055 21.0533 5.59126 21.2714 5.53316 21.5331C5.44603 21.9693 5.35889 22.3909 5.27176 22.8271C5.14105 22.8562 4.63276 22.8707 4.41492 22.8417C4.41492 22.7835 4.41492 22.7253 4.4004 22.6672C4.41492 22.6672 4.4004 22.6672 4.4004 22.6672C4.41492 22.6672 4.41492 22.6526 4.41492 22.6526C4.41492 22.6672 4.41492 22.6672 4.4004 22.6672ZM4.54562 22.0129C4.45849 21.9984 4.37135 21.9984 4.28422 22.0129C4.18256 22.0274 4.09542 22.0856 4.05185 22.1874C4.00828 22.3037 4.06638 22.3909 4.18256 22.4055C4.31326 22.42 4.41492 22.3619 4.48753 22.2455C4.5311 22.1874 4.56015 22.1147 4.54562 22.0129Z" fill="#242424"/>
<path id="Vector_17" d="M19.6783 22.8562C19.3878 22.8562 19.1119 22.8562 18.8505 22.8562C18.8069 22.798 18.8505 22.7399 18.8214 22.6963C18.8069 22.6963 18.7924 22.6963 18.7779 22.6963C18.6762 22.769 18.56 22.8417 18.4439 22.8707C18.2696 22.9144 18.0808 22.9144 17.892 22.8853C17.6451 22.8417 17.5144 22.6672 17.5144 22.42C17.5144 22.2165 17.6015 22.042 17.7613 21.9111C17.9501 21.7512 18.1679 21.6785 18.4148 21.6494C18.5891 21.6349 18.7634 21.6349 18.9522 21.6203C18.9667 21.6203 18.9957 21.6203 19.0102 21.6203C19.0683 21.6203 19.0974 21.5767 19.0829 21.5186C19.0683 21.4313 19.0102 21.3877 18.9376 21.3732C18.8214 21.3441 18.7053 21.315 18.5746 21.3441C18.4003 21.3732 18.226 21.4168 18.0517 21.4604C18.0227 21.4604 18.0082 21.4749 17.9646 21.4749C17.9646 21.4459 17.9501 21.4168 17.9646 21.3877C17.9937 21.2568 18.0227 21.126 18.0517 20.9951C18.1679 20.9224 18.2986 20.9224 18.4293 20.9079C18.6617 20.8643 18.8941 20.8497 19.1264 20.8643C19.2571 20.8643 19.3878 20.8934 19.5185 20.937C19.5766 20.9515 19.6492 20.9806 19.7073 21.0242C19.9107 21.1551 19.9978 21.3295 19.9542 21.5767C19.8961 21.882 19.838 22.1874 19.7799 22.4927C19.7364 22.5799 19.7073 22.7108 19.6783 22.8562ZM18.9667 22.0129C18.8214 21.9984 18.7053 21.9838 18.5746 22.0565C18.5019 22.1001 18.4584 22.1583 18.4439 22.2455C18.4293 22.3328 18.4729 22.4055 18.56 22.42C18.6907 22.4491 18.8214 22.3909 18.8795 22.2746C18.9376 22.1874 18.9522 22.1147 18.9667 22.0129Z" fill="#242424"/>
<path id="Vector_18" d="M38.0639 20.8934C38.0493 21.0824 38.0058 21.2569 37.9622 21.4314C37.8315 21.4605 37.6863 21.4314 37.5556 21.4605C37.5411 21.4895 37.5265 21.5332 37.5265 21.5622C37.4975 21.7076 37.4684 21.8676 37.4394 22.013C37.4394 22.042 37.4249 22.0711 37.4249 22.1002C37.4249 22.202 37.483 22.2601 37.5846 22.2601C37.6282 22.2601 37.6572 22.2601 37.7008 22.2456C37.7298 22.2456 37.7589 22.2311 37.8025 22.2311C37.8025 22.2601 37.817 22.2892 37.8025 22.3183C37.7734 22.4782 37.7444 22.6236 37.7008 22.7836C37.5846 22.8417 37.4539 22.8708 37.3232 22.8853C37.1925 22.8999 37.0618 22.8853 36.9456 22.8853C36.9166 22.8853 36.9021 22.8853 36.873 22.8853C36.5971 22.8272 36.4083 22.6672 36.4228 22.3328C36.4373 22.2311 36.4519 22.1293 36.4664 22.0275C36.4954 21.8821 36.5245 21.7367 36.5535 21.5913C36.568 21.5477 36.5535 21.5041 36.568 21.4605C36.4664 21.4459 36.3792 21.4459 36.2776 21.4314C36.2776 21.3005 36.3212 21.0388 36.3792 20.8789C36.4664 20.8498 36.5826 20.8789 36.6842 20.8498C36.7423 20.7189 36.7423 20.559 36.7859 20.3991C36.9311 20.3264 37.1054 20.2973 37.2796 20.2391C37.4394 20.1955 37.5991 20.1374 37.7879 20.1083C37.7589 20.2537 37.7444 20.37 37.7153 20.4863C37.6863 20.6026 37.6718 20.7189 37.6427 20.8353C37.7879 20.908 37.9186 20.8498 38.0639 20.8934Z" fill="#242424"/>
<path id="Vector_19" d="M22.6118 22.7835C22.6118 22.7544 22.6118 22.7399 22.6118 22.7108C22.6409 22.5654 22.6699 22.42 22.699 22.2746C22.7425 22.2892 22.7716 22.2892 22.8151 22.3037C22.9749 22.3619 23.1346 22.3909 23.2944 22.42C23.396 22.4346 23.4977 22.4346 23.5994 22.3909C23.6284 22.3909 23.6429 22.3764 23.672 22.3619C23.7155 22.3328 23.7301 22.3037 23.7301 22.2601C23.7301 22.2165 23.6865 22.2019 23.6574 22.1874C23.6139 22.1728 23.5703 22.1728 23.5267 22.1583C23.3815 22.1292 23.2363 22.1001 23.1056 22.0565C22.8297 21.9693 22.7135 21.7367 22.7861 21.4459C22.8442 21.2423 22.9749 21.1115 23.1492 21.0097C23.3234 20.9079 23.5122 20.8643 23.7155 20.8497C24.0205 20.8207 24.311 20.8352 24.6159 20.8934C24.645 20.9079 24.6886 20.9079 24.7321 20.9224C24.7176 21.0969 24.674 21.2423 24.6305 21.4168C24.5869 21.4168 24.5433 21.4168 24.4998 21.4022C24.311 21.3441 24.1222 21.3296 23.9189 21.3441C23.8608 21.3441 23.8027 21.3586 23.7446 21.3877C23.7155 21.4022 23.701 21.4313 23.6865 21.4749C23.672 21.504 23.7155 21.5476 23.7591 21.5622C23.7882 21.5767 23.8317 21.5767 23.8608 21.5767C23.9915 21.5913 24.1222 21.6203 24.2529 21.6494C24.2964 21.664 24.34 21.6785 24.3981 21.693C24.5724 21.7657 24.645 21.8966 24.6595 22.0856C24.6595 22.2601 24.6014 22.4055 24.4852 22.5363C24.4126 22.6236 24.3255 22.6963 24.2238 22.7544C24.0786 22.8271 23.9334 22.8707 23.7736 22.8853C23.4106 22.9289 23.0475 22.9144 22.6844 22.8126C22.6554 22.798 22.6409 22.798 22.6118 22.7835Z" fill="#242424"/>
<path id="Vector_20" d="M33.983 22.769C33.983 22.6091 34.0411 22.4491 34.0847 22.2747C34.1283 22.2892 34.1573 22.2892 34.1864 22.3037C34.3461 22.3619 34.5059 22.391 34.6656 22.4201C34.7673 22.4346 34.8689 22.4346 34.9706 22.4055C34.9996 22.391 35.0287 22.391 35.0577 22.3619C35.0868 22.3328 35.1013 22.3037 35.1013 22.2747C35.1013 22.231 35.0722 22.202 35.0287 22.202C34.927 22.1729 34.8399 22.1729 34.7382 22.1438C34.622 22.1147 34.5059 22.0856 34.3897 22.042C34.2009 21.9548 34.0992 21.7803 34.1283 21.5622C34.1428 21.4168 34.2154 21.286 34.3171 21.1696C34.4623 21.0243 34.6511 20.937 34.8544 20.9079C35.232 20.8352 35.6241 20.8352 36.0017 20.9225C36.0307 20.9225 36.0598 20.937 36.0888 20.9516C36.0743 21.126 36.0307 21.286 35.9872 21.4459C35.9436 21.4459 35.9 21.4459 35.8565 21.4314C35.6677 21.3732 35.4644 21.3587 35.261 21.3732C35.1884 21.3732 35.1303 21.3877 35.0722 21.4314C35.0287 21.4604 35.0287 21.5331 35.0722 21.5477C35.1158 21.5768 35.1594 21.5913 35.2029 21.5913C35.3336 21.6204 35.4789 21.6349 35.6241 21.664C35.6677 21.6785 35.7112 21.6931 35.7693 21.7076C35.9436 21.7803 36.0307 21.9112 36.0162 22.1002C36.0162 22.391 35.871 22.5945 35.6241 22.7399C35.4789 22.8417 35.3046 22.8853 35.1303 22.8999C34.7818 22.9289 34.4187 22.9289 34.0702 22.8417C34.0411 22.8417 34.0266 22.8272 33.9976 22.8272C34.0121 22.7981 34.0121 22.7835 33.983 22.769Z" fill="#242424"/>
<path id="Vector_21" d="M41.4187 20.937C41.4187 21.0969 41.3606 21.3586 41.3025 21.475C41.2589 21.4604 41.2299 21.4604 41.1863 21.4459C41.0701 21.4168 40.954 21.4168 40.8378 21.4168C40.5473 21.4313 40.315 21.7076 40.344 22.0129C40.3585 22.1583 40.4311 22.2601 40.5618 22.3037C40.6635 22.3473 40.7652 22.3473 40.8668 22.3328C40.9394 22.3183 41.012 22.2892 41.0847 22.2746C41.1137 22.2746 41.1427 22.2746 41.1718 22.2601C41.1718 22.391 41.1282 22.609 41.0701 22.7981C40.954 22.8562 40.8378 22.8708 40.7071 22.8853C40.5183 22.8998 40.344 22.8998 40.1552 22.8853C39.9664 22.8708 39.7921 22.8271 39.6324 22.7108C39.4291 22.58 39.3274 22.391 39.3129 22.1583C39.2693 21.5767 39.6324 21.1406 40.01 20.9661C40.1552 20.8934 40.315 20.8498 40.4602 20.8352C40.7652 20.7916 41.0701 20.8061 41.3751 20.8934C41.3896 20.9079 41.4042 20.9225 41.4187 20.937Z" fill="#242424"/>
<path id="Vector_22" d="M5.99782 20.8934C6.21566 20.8643 6.753 20.8643 6.8837 20.8934C6.89823 20.9806 6.82561 21.0679 6.86918 21.1697C6.89823 21.1551 6.92727 21.1406 6.9418 21.1115C6.99989 21.0533 7.05798 20.9952 7.13059 20.937C7.27582 20.8353 7.42104 20.8062 7.59532 20.8207C7.60984 20.8207 7.62436 20.8352 7.65341 20.8498C7.59532 21.097 7.55175 21.3441 7.49366 21.6058C7.45009 21.6058 7.40652 21.6058 7.36295 21.6058C7.01441 21.5768 6.78205 21.7367 6.69491 22.0857C6.65134 22.2456 6.6223 22.4201 6.59325 22.58C6.57873 22.6527 6.56421 22.7399 6.53516 22.8126C6.37541 22.8417 6.21566 22.8272 6.05591 22.8272C5.91069 22.8272 5.75094 22.8272 5.59119 22.8272C5.59119 22.7836 5.59119 22.7545 5.59119 22.7399C5.75094 22.1438 5.86712 21.5186 5.99782 20.8934ZM6.85466 21.2569C6.85466 21.2424 6.86918 21.2424 6.86918 21.2278C6.86918 21.2278 6.86918 21.2133 6.85466 21.2133L6.84014 21.2278C6.84014 21.2424 6.84014 21.2424 6.85466 21.2569Z" fill="#242424"/>
<path id="Vector_23" d="M17.5289 21.6349C17.4854 21.6349 17.4418 21.6349 17.3837 21.6204C17.1078 21.6058 16.919 21.7221 16.8028 21.9838C16.7737 22.0565 16.7592 22.1147 16.7447 22.1874C16.7011 22.3764 16.6721 22.5654 16.6285 22.769C16.6285 22.7981 16.614 22.8126 16.614 22.8271C16.4833 22.8562 15.9024 22.8562 15.6991 22.8417C15.67 22.7981 15.6845 22.7544 15.6845 22.7254C15.8007 22.1292 15.9314 21.5477 16.0476 20.9515C16.0476 20.937 16.0621 20.9225 16.0621 20.9079C16.1928 20.8788 16.7157 20.8788 16.919 20.9079C16.948 21.0242 16.8609 21.126 16.8899 21.2569C17.0352 21.0824 17.1659 20.9225 17.3837 20.8643C17.4854 20.8352 17.5725 20.8352 17.6741 20.8498C17.6741 20.8788 17.6887 20.9079 17.6887 20.937C17.6596 21.1551 17.5725 21.5331 17.5289 21.6349Z" fill="#242424"/>
<path id="Vector_24" d="M39.2548 20.8934C39.1241 21.5477 38.9934 22.1874 38.8627 22.8272C38.7174 22.8562 38.0785 22.8562 37.9332 22.8272C37.9332 22.8126 37.9187 22.7981 37.9187 22.7981C38.0494 22.1729 38.1656 21.5477 38.2963 20.937C38.2963 20.9225 38.3108 20.9079 38.3253 20.8934C38.456 20.8643 39.0515 20.8643 39.2548 20.8934Z" fill="#242424"/>
<path id="Vector_25" d="M33.0681 20.8934C33.2714 20.8643 33.8669 20.8643 34.0121 20.8934C34.0121 20.9225 34.0121 20.9516 34.0121 20.9806C33.925 21.5041 33.6636 22.7108 33.62 22.8417C33.4457 22.8708 32.8503 22.8562 32.7051 22.8417C32.7051 22.8126 32.6905 22.7981 32.7051 22.769C32.8212 22.1438 32.9519 21.5186 33.0681 20.8934Z" fill="#242424"/>
<path id="Vector_26" d="M38.4705 20.0355C38.4996 20.021 38.5141 20.0065 38.5286 20.0065C38.8046 20.0065 39.0805 20.0065 39.3564 20.0065C39.3709 20.0065 39.3855 20.021 39.4 20.021C39.4 20.1519 39.3419 20.4717 39.2838 20.6607C39.1386 20.6898 38.9788 20.6753 38.8191 20.6753C38.6739 20.6753 38.5141 20.6898 38.3689 20.6607C38.3689 20.6317 38.3544 20.6171 38.3689 20.6026C38.3979 20.4136 38.4415 20.2246 38.4705 20.0355Z" fill="#242424"/>
<path id="Vector_27" d="M34.0556 20.6607C33.8668 20.6753 33.3004 20.6753 33.1407 20.6607C33.1117 20.5444 33.1697 20.4426 33.1697 20.3409C33.1843 20.2391 33.2133 20.1228 33.2424 20.021C33.4021 19.9919 33.5619 20.0064 33.7216 20.0064C33.8668 20.0064 34.0266 19.9774 34.1718 20.021C34.1718 20.1955 34.1137 20.4863 34.0556 20.6607Z" fill="#242424"/>
<path id="Vector_28" d="M54.4165 9.66879C54.2422 9.66879 54.1115 9.50886 54.1405 9.34892C54.155 9.31984 54.1696 9.27622 54.1986 9.26168C54.4019 9.07267 54.6053 8.89819 54.8376 8.7528C54.8957 8.72372 54.9683 8.69464 55.0409 8.6801C55.1135 8.66556 55.1716 8.72372 55.1716 8.79642C55.1716 8.85457 55.1426 8.89819 55.1135 8.94181C54.9974 9.08721 54.8812 9.2326 54.765 9.39254C54.7069 9.46524 54.6633 9.52339 54.6053 9.59609C54.5472 9.63971 54.4891 9.66879 54.4165 9.66879Z" fill="#242424"/>
<path id="Vector_29" d="M53.85 9.3053C53.8355 9.3053 53.8065 9.3053 53.792 9.3053C53.6613 9.29076 53.6032 9.20353 53.6322 9.07267C53.6467 9.01451 53.6613 8.97089 53.6903 8.92727C53.792 8.7528 53.9227 8.6074 54.0969 8.47655C54.1841 8.41839 54.2712 8.40385 54.3729 8.41839C54.431 8.43293 54.46 8.47655 54.4455 8.53471C54.431 8.57833 54.4164 8.62194 54.3874 8.66556C54.3148 8.76734 54.2712 8.88366 54.2131 8.98543C54.1841 9.04359 54.155 9.10175 54.1115 9.15991C54.0534 9.26168 53.9517 9.3053 53.85 9.3053Z" fill="#242424"/>
<path id="Vector_30" d="M49.624 7.3425C49.6676 7.2698 49.7257 7.25526 49.7983 7.24072C50.0307 7.1971 50.263 7.1971 50.4954 7.24072C50.539 7.24072 50.5825 7.2698 50.6261 7.29888C50.7423 7.37158 50.7858 7.47335 50.6842 7.60421C50.6406 7.64783 50.6116 7.70599 50.568 7.74961C50.5244 7.80776 50.4663 7.80776 50.4083 7.77869C50.1904 7.67691 49.9726 7.57513 49.7693 7.47335C49.6966 7.42974 49.6531 7.40066 49.624 7.3425Z" fill="#242424"/>
<path id="Vector_31" d="M53.0658 8.72373C53.0803 8.53472 53.1094 8.38932 53.1965 8.27301C53.3127 8.08399 53.4724 8.05491 53.6612 8.11307C53.7629 8.14215 53.8065 8.22939 53.7629 8.33117C53.7338 8.38932 53.7048 8.44748 53.6612 8.50564C53.5886 8.60742 53.5305 8.70919 53.4579 8.81097C53.4434 8.84005 53.4143 8.86913 53.3853 8.89821C53.2836 8.99999 53.1529 8.97091 53.0948 8.84005C53.0658 8.78189 53.0658 8.72373 53.0658 8.72373Z" fill="#242424"/>
<path id="Vector_32" d="M53.0513 8.08401C53.0368 8.11309 53.0223 8.15671 52.9787 8.20033C52.9061 8.3021 52.8335 8.38934 52.7464 8.49112C52.7028 8.53474 52.6592 8.57835 52.6157 8.62197C52.5721 8.65105 52.514 8.66559 52.4559 8.63651C52.3978 8.60743 52.3543 8.54928 52.3688 8.49112C52.3688 8.46204 52.3833 8.43296 52.3978 8.40388C52.4704 8.25848 52.5576 8.11309 52.6738 7.99677C52.7173 7.95315 52.7754 7.92407 52.819 7.895C52.9642 7.85138 53.0659 7.93861 53.0513 8.08401Z" fill="#242424"/>
<path id="Vector_33" d="M52.1219 8.30213C52.0492 8.30213 52.0057 8.28759 51.9766 8.24397C51.8895 8.14219 51.875 7.9968 51.9621 7.86594C52.0347 7.74962 52.18 7.70601 52.2961 7.74962C52.3542 7.76416 52.3833 7.80778 52.3978 7.86594C52.4268 8.01134 52.3107 8.22943 52.1799 8.27305C52.1509 8.30213 52.1364 8.30213 52.1219 8.30213Z" fill="#242424"/>
<path id="Vector_34" d="M51.7589 7.85138C51.7734 7.9677 51.7589 7.98224 51.6862 8.01131C51.6717 8.02585 51.6572 8.02585 51.6427 8.02585C51.5265 8.05493 51.4539 8.01131 51.4248 7.895C51.4103 7.79322 51.4248 7.70598 51.512 7.63328C51.5846 7.57513 51.6717 7.58966 51.7153 7.6769C51.7443 7.7496 51.7443 7.8223 51.7589 7.85138Z" fill="#242424"/>
<path id="Vector_35" d="M51.0617 7.48785C51.0907 7.50239 51.1343 7.50239 51.1488 7.53147C51.2069 7.57509 51.2504 7.64779 51.2504 7.72049C51.265 7.80773 51.1778 7.89497 51.0907 7.90951C51.0326 7.90951 50.989 7.89497 50.96 7.85135C50.9019 7.74957 50.9019 7.64779 50.9745 7.56055C50.989 7.51693 51.0326 7.50239 51.0617 7.48785Z" fill="#242424"/>
</g>
</g>
<defs>
<clipPath id="clip0">
<rect width="64.4516" height="27" fill="white"/>
</clipPath>
</defs>
</svg>
