<svg width="48" height="48" viewBox="0 0 48 48" fill="none" xmlns="http://www.w3.org/2000/svg"><path d="M36.172 34.734c-.256 0-.512-.098-.708-.292L31.222 30.2a1 1 0 00-1.414 1.414 1 1 0 01-1.414 1.414 3.002 3.002 0 010-4.242 3.006 3.006 0 014.242 0l4.244 4.242a1 1 0 01-.708 1.706z" fill="#F7A707"/><path d="M33.342 31.906c-.256 0-.512-.098-.708-.292a3.01 3.01 0 010-4.242c1.134-1.132 3.11-1.132 4.244 0l2.828 2.828a1 1 0 01-1.414 1.414l-2.828-2.828a1.003 1.003 0 00-1.416 0 1.004 1.004 0 000 1.414c.388.39.39 1.024 0 1.414a.996.996 0 01-.706.292z" fill="#F7A707"/><path d="M36.544 47.996c-.736 0-1.476-.09-2.204-.276l-6.974-1.778a.99.99 0 01-.616-.464c-.476-.816-.968-2.77.584-4.318.688-.688 1.614-.956 2.518-1.018l-8.53-8.53a3.002 3.002 0 010-4.242c1.134-1.132 3.112-1.132 4.244 0l8.484 8.484a1 1 0 01-1.414 1.414l-8.486-8.484c-.376-.376-1.034-.376-1.414 0a1 1 0 000 1.414l10.606 10.608a.999.999 0 01.144 1.23c-.242.394-.72.566-1.166.426-.852-.278-2.842-.62-3.574.112a1.52 1.52 0 00-.41 1.552l6.496 1.656a7.027 7.027 0 006.678-1.834l2.438-2.436a7.01 7.01 0 000-9.9l-4.244-4.242a1.023 1.023 0 00-1.414 0 .993.993 0 00-.002 1.414 1 1 0 01-1.414 1.414 2.983 2.983 0 01-.88-2.124c0-.8.314-1.554.882-2.12 1.13-1.136 3.108-1.136 4.242 0l4.242 4.242c3.508 3.51 3.508 9.218 0 12.728l-2.438 2.436a9.017 9.017 0 01-6.378 2.636zM21 42H5c-2.756 0-5-2.242-5-5V11c0-2.758 2.244-5 5-5h4a1 1 0 010 2H5c-1.654 0-3 1.346-3 3v26c0 1.654 1.346 3 3 3h16a1 1 0 010 2z" fill="#F7A707"/><path d="M23 12H11c-1.654 0-3-1.346-3-3V5a1 1 0 011-1h3.1c.466-2.28 2.484-4 4.9-4a5.009 5.009 0 014.9 4H25a1 1 0 011 1v4c0 1.654-1.346 3-3 3zM10 6v3c0 .55.448 1 1 1h12c.552 0 1-.45 1-1V6h-3a1 1 0 01-1-1c0-1.654-1.346-3-3-3s-3 1.346-3 3a1 1 0 01-1 1h-3z" fill="#F7A707"/><path d="M33 24a1 1 0 01-1-1V11c0-1.654-1.346-3-3-3h-4a1 1 0 010-2h4c2.756 0 5 2.242 5 5v12a1 1 0 01-1 1zm-6-6H7a1 1 0 010-2h20a1 1 0 010 2zm0 6H7a1 1 0 010-2h20a1 1 0 010 2zm-10 6H7a1 1 0 010-2h10a1 1 0 010 2z" fill="#F7A707"/></svg>