<svg width="40" height="48" viewBox="0 0 40 48" fill="none" xmlns="http://www.w3.org/2000/svg"><path d="M7 40a1 1 0 01-1-1V29a1 1 0 011-1h3c2.206 0 4 1.794 4 4s-1.794 4-4 4H8v3a1 1 0 01-1 1zm1-6h2c1.102 0 2-.898 2-2 0-1.102-.898-2-2-2H8v4z" fill="#F7A707"/><path d="M35 48H5c-2.756 0-5-2.244-5-5V5c0-2.756 2.244-5 5-5h30c2.756 0 5 2.244 5 5v38c0 2.756-2.244 5-5 5zM5 2C3.346 2 2 3.346 2 5v38c0 1.654 1.346 3 3 3h30c1.654 0 3-1.346 3-3V5c0-1.654-1.346-3-3-3H5z" fill="#F7A707"/><path d="M21 40h-4a1 1 0 01-1-1V29a1 1 0 011-1h4c1.654 0 3 1.346 3 3v6c0 1.654-1.346 3-3 3zm-3-2h3a1 1 0 001-1v-6a1 1 0 00-1-1h-3v8zm9 2a1 1 0 01-1-1v-8c0-1.654 1.346-3 3-3h4a1 1 0 010 2h-4a1 1 0 00-1 1v8a1 1 0 01-1 1z" fill="#F7A707"/><path d="M33 36h-6a1 1 0 010-2h6a1 1 0 010 2z" fill="#F7A707"/></svg>