<svg width="40" height="48" viewBox="0 0 40 48" fill="none" xmlns="http://www.w3.org/2000/svg">
<path d="M35 48H5C2.244 48 0 45.756 0 43V5C0 2.244 2.244 0 5 0H35C37.756 0 40 2.244 40 5V43C40 45.756 37.756 48 35 48ZM5 2C3.346 2 2 3.346 2 5V43C2 44.654 3.346 46 5 46H35C36.654 46 38 44.654 38 43V5C38 3.346 36.654 2 35 2H5Z" fill="#F7A707"/>
<path d="M30 26H10C9.448 26 9 25.552 9 25C9 24.448 9.448 24 10 24H30C30.552 24 31 24.448 31 25C31 25.552 30.552 26 30 26Z" fill="#F7A707"/>
<path d="M30 32H10C9.448 32 9 31.552 9 31C9 30.448 9.448 30 10 30H30C30.552 30 31 30.448 31 31C31 31.552 30.552 32 30 32Z" fill="#F7A707"/>
<path d="M20 38H10C9.448 38 9 37.552 9 37C9 36.448 9.448 36 10 36H20C20.552 36 21 36.448 21 37C21 37.552 20.552 38 20 38Z" fill="#F7A707"/>
<path d="M25.9195 37.1663L28.0028 39.3761L30.0861 37.1663C30.1358 37.1136 30.1948 37.0718 30.2598 37.0432C30.3247 37.0147 30.3944 37 30.4647 37C30.535 37 30.6046 37.0147 30.6695 37.0432C30.7345 37.0718 30.7935 37.1136 30.8432 37.1663C30.8929 37.219 30.9323 37.2816 30.9592 37.3505C30.9862 37.4194 31 37.4933 31 37.5678C31 37.6424 30.9862 37.7162 30.9592 37.7851C30.9323 37.854 30.8929 37.9166 30.8432 37.9693L28.3787 40.5834C28.329 40.6362 28.27 40.6781 28.205 40.7067C28.1401 40.7353 28.0704 40.75 28.0001 40.75C27.9298 40.75 27.8602 40.7353 27.7952 40.7067C27.7303 40.6781 27.6712 40.6362 27.6216 40.5834L25.157 37.9693C25.1072 37.9167 25.0678 37.8541 25.0408 37.7852C25.0139 37.7163 25 37.6424 25 37.5678C25 37.4932 25.0139 37.4194 25.0408 37.3505C25.0678 37.2816 25.1072 37.219 25.157 37.1663C25.3664 36.9499 25.7101 36.9442 25.9195 37.1663Z" fill="#F7A707"/>
</svg>
